<svg width="19" height="21" viewBox="0 0 19 21" fill="none" xmlns="http://www.w3.org/2000/svg">
<path d="M4.66661 10.5H5.83327V11.6667H12.8333V10.5H13.9999V9.33333H15.1666V2.33333H13.9999V1.16667H12.8333V0H5.83327V1.16667H4.66661V2.33333H3.49994V9.33333H4.66661V10.5ZM5.83327 4.66667H6.99994V3.5H8.16661V2.33333H10.4999V3.5H11.6666V4.66667H12.8333V7H11.6666V8.16667H10.4999V9.33333H8.16661V8.16667H6.99994V7H5.83327V4.66667Z" fill="#767676"/>
<path d="M17.5 15.1663V13.9997H16.3333V12.833H2.33333V13.9997H1.16667V15.1663H0V20.9997H2.33333V17.4997H3.5V16.333H4.66667V15.1663H14V16.333H15.1667V17.4997H16.3333V20.9997H18.6667V15.1663H17.5Z" fill="#767676"/>
</svg>
