<svg width="82" height="32" viewBox="0 0 82 32" fill="none" xmlns="http://www.w3.org/2000/svg">
<path d="M24 10.2975L18.2973 15.9999L24 21.7027L17.7026 28L12 22.2974L6.29744 28L0 21.7027L5.70256 15.9999L0 10.2975L6.29744 4L12 9.70259L17.7026 4L24 10.2975ZM15.9919 18.5275L15.4393 20.5725L15.1217 19.3978L13.8652 20.6543C14.7252 21.5143 16.1195 21.5143 16.9794 20.6543C17.8394 19.7944 17.8394 18.4001 16.9794 17.5401L15.9919 18.5275ZM7.33969 17.5401C6.47974 18.4001 6.47974 19.7944 7.33969 20.6543C8.19966 21.5143 9.59396 21.5143 10.4539 20.6543L9.19748 19.3978L8.87986 20.5725L8.32726 18.5275L7.33969 17.5401Z" fill="black"/>
<path d="M31.1646 7.85714H32.8788V9.57143H31.1646V7.85714ZM32.8788 7.85714H34.5931V9.57143H32.8788V7.85714ZM32.8788 9.57143H34.5931V11.2857H32.8788V9.57143ZM32.8788 11.2857H34.5931V13H32.8788V11.2857ZM32.8788 13H34.5931V14.7143H32.8788V13ZM31.1646 13H32.8788V14.7143H31.1646V13ZM31.1646 11.2857H32.8788V13H31.1646V11.2857ZM31.1646 9.57143H32.8788V11.2857H31.1646V9.57143ZM31.1646 14.7143H32.8788V16.4286H31.1646V14.7143ZM31.1646 16.4286H32.8788V18.1429H31.1646V16.4286ZM31.1646 18.1429H32.8788V19.8571H31.1646V18.1429ZM32.8788 16.4286H34.5931V18.1429H32.8788V16.4286ZM32.8788 14.7143H34.5931V16.4286H32.8788V14.7143ZM32.8788 18.1429H34.5931V19.8571H32.8788V18.1429ZM32.8788 19.8571H34.5931V21.5714H32.8788V19.8571ZM31.1646 21.5714H32.8788V23.2857H31.1646V21.5714ZM31.1646 19.8571H32.8788V21.5714H31.1646V19.8571ZM31.1646 23.2857H32.8788V25H31.1646V23.2857ZM32.8788 23.2857H34.5931V25H32.8788V23.2857ZM32.8788 21.5714H34.5931V23.2857H32.8788V21.5714ZM34.5931 7.85714H36.3074V9.57143H34.5931V7.85714ZM36.3074 7.85714H38.0217V9.57143H36.3074V7.85714ZM38.0217 7.85714H39.736V9.57143H38.0217V7.85714ZM39.736 7.85714H41.4503V9.57143H39.736V7.85714ZM38.0217 9.57143H39.736V11.2857H38.0217V9.57143ZM36.3074 9.57143H38.0217V11.2857H36.3074V9.57143ZM34.5931 9.57143H36.3074V11.2857H34.5931V9.57143ZM34.5931 16.4286H36.3074V18.1429H34.5931V16.4286ZM36.3074 14.7143H38.0217V16.4286H36.3074V14.7143ZM34.5931 14.7143H36.3074V16.4286H34.5931V14.7143ZM36.3074 16.4286H38.0217V18.1429H36.3074V16.4286ZM39.736 9.57143H41.4503V11.2857H39.736V9.57143ZM38.0217 14.7143H39.736V16.4286H38.0217V14.7143ZM38.0217 16.4286H39.736V18.1429H38.0217V16.4286ZM55.1646 23.2857H53.4503V21.5714H55.1646V23.2857ZM55.1646 25H53.4503V23.2857H55.1646V25ZM53.4503 25H51.736V23.2857H53.4503V25ZM53.4503 23.2857H51.736V21.5714H53.4503V23.2857ZM53.4503 21.5714H51.736V19.8571H53.4503V21.5714ZM53.4503 19.8571H51.736V18.1429H53.4503V19.8571ZM53.4503 18.1429H51.736V16.4286H53.4503V18.1429ZM55.1646 18.1429H53.4503V16.4286H55.1646V18.1429ZM55.1646 19.8571H53.4503V18.1429H55.1646V19.8571ZM55.1646 21.5714H53.4503V19.8571H55.1646V21.5714ZM55.1646 16.4286H53.4503V14.7143H55.1646V16.4286ZM53.4503 16.4286H51.736V14.7143H53.4503V16.4286ZM53.4503 14.7143H51.736V13H53.4503V14.7143ZM53.4503 13H51.736V11.2857H53.4503V13ZM55.1646 13H53.4503V11.2857H55.1646V13ZM55.1646 14.7143H53.4503V13H55.1646V14.7143ZM46.5931 13H44.8788V11.2857H46.5931V13ZM44.8788 13H43.1646V11.2857H44.8788V13ZM44.8788 14.7143H43.1646V13H44.8788V14.7143ZM44.8788 16.4286H43.1646V14.7143H44.8788V16.4286ZM44.8788 18.1429H43.1646V16.4286H44.8788V18.1429ZM44.8788 19.8571H43.1646V18.1429H44.8788V19.8571ZM44.8788 21.5714H43.1646V19.8571H44.8788V21.5714ZM44.8788 23.2857H43.1646V21.5714H44.8788V23.2857ZM46.5931 19.8571H44.8788V18.1429H46.5931V19.8571ZM46.5931 18.1429H44.8788V16.4286H46.5931V18.1429ZM46.5931 16.4286H44.8788V14.7143H46.5931V16.4286ZM46.5931 14.7143H44.8788V13H46.5931V14.7143ZM46.5931 21.5714H44.8788V19.8571H46.5931V21.5714ZM51.736 23.2857H50.0217V21.5714H51.736V23.2857ZM50.0217 23.2857H48.3074V21.5714H50.0217V23.2857ZM48.3074 23.2857H46.5931V21.5714H48.3074V23.2857ZM48.3074 25H46.5931V23.2857H48.3074V25ZM46.5931 25H44.8788V23.2857H46.5931V25ZM46.5931 23.2857H44.8788V21.5714H46.5931V23.2857ZM50.0217 25H48.3074V23.2857H50.0217V25ZM56.8833 13H58.5976V14.7143H56.8833V13ZM56.8833 11.2857H58.5976V13H56.8833V11.2857ZM58.5976 11.2857H60.3119V13H58.5976V11.2857ZM58.5976 13H60.3119V14.7143H58.5976V13ZM58.5976 14.7143H60.3119V16.4286H58.5976V14.7143ZM58.5976 16.4286H60.3119V18.1429H58.5976V16.4286ZM58.5976 18.1429H60.3119V19.8571H58.5976V18.1429ZM56.8833 18.1429H58.5976V19.8571H56.8833V18.1429ZM56.8833 16.4286H58.5976V18.1429H56.8833V16.4286ZM56.8833 14.7143H58.5976V16.4286H56.8833V14.7143ZM56.8833 19.8571H58.5976V21.5714H56.8833V19.8571ZM58.5976 19.8571H60.3119V21.5714H58.5976V19.8571ZM58.5976 21.5714H60.3119V23.2857H58.5976V21.5714ZM58.5976 23.2857H60.3119V25H58.5976V23.2857ZM56.8833 23.2857H58.5976V25H56.8833V23.2857ZM56.8833 21.5714H58.5976V23.2857H56.8833V21.5714ZM60.3119 13H62.0262V14.7143H60.3119V13ZM62.0262 13H63.7404V14.7143H62.0262V13ZM63.7404 13H65.4547V14.7143H63.7404V13ZM63.7404 11.2857H65.4547V13H63.7404V11.2857ZM62.0262 11.2857H63.7404V13H62.0262V11.2857ZM60.3119 14.7143H62.0262V16.4286H60.3119V14.7143ZM65.4547 13H67.169V14.7143H65.4547V13ZM63.7404 14.7143H65.4547V16.4286H63.7404V14.7143ZM68.8833 11.2857H70.5976V13H68.8833V11.2857ZM70.5976 11.2857H72.3119V13H70.5976V11.2857ZM70.5976 13H72.3119V14.7143H70.5976V13ZM70.5976 14.7143H72.3119V16.4286H70.5976V14.7143ZM70.5976 16.4286H72.3119V18.1429H70.5976V16.4286ZM68.8833 14.7143H70.5976V16.4286H68.8833V14.7143ZM68.8833 13H70.5976V14.7143H68.8833V13ZM68.8833 16.4286H70.5976V18.1429H68.8833V16.4286ZM68.8833 18.1429H70.5976V19.8571H68.8833V18.1429ZM70.5976 18.1429H72.3119V19.8571H70.5976V18.1429ZM70.5976 19.8571H72.3119V21.5714H70.5976V19.8571ZM72.3119 19.8571H74.0262V21.5714H72.3119V19.8571ZM72.3119 21.5714H74.0262V23.2857H72.3119V21.5714ZM74.0262 21.5714H75.7404V23.2857H74.0262V21.5714ZM75.7404 21.5714H77.4547V23.2857H75.7404V21.5714ZM75.7404 19.8571H77.4547V21.5714H75.7404V19.8571ZM75.7404 18.1429H77.4547V19.8571H75.7404V18.1429ZM77.4547 18.1429H79.169V19.8571H77.4547V18.1429ZM77.4547 19.8571H79.169V21.5714H77.4547V19.8571ZM77.4547 16.4286H79.169V18.1429H77.4547V16.4286ZM75.7404 16.4286H77.4547V18.1429H75.7404V16.4286ZM75.7404 11.2857H77.4547V13H75.7404V11.2857ZM77.4547 11.2857H79.169V13H77.4547V11.2857ZM77.4547 13H79.169V14.7143H77.4547V13ZM77.4547 14.7143H79.169V16.4286H77.4547V14.7143ZM75.7404 13H77.4547V14.7143H75.7404V13ZM75.7404 14.7143H77.4547V16.4286H75.7404V14.7143ZM74.0262 23.2857H75.7404V25H74.0262V23.2857ZM72.3119 23.2857H74.0262V25H72.3119V23.2857ZM72.3119 25H74.0262V26.7143H72.3119V25ZM70.5976 25H72.3119V26.7143H70.5976V25ZM70.5976 23.2857H72.3119V25H70.5976V23.2857ZM70.5976 26.7143H72.3119V28.4286H70.5976V26.7143ZM68.8833 26.7143H70.5976V28.4286H68.8833V26.7143ZM68.8833 25H70.5976V26.7143H68.8833V25ZM74.0262 19.8571H75.7404V21.5714H74.0262V19.8571ZM72.3119 18.1429H74.0262V19.8571H72.3119V18.1429Z" fill="#151515"/>
</svg>
